<svg width="11" height="12" viewBox="0 0 11 12" fill="none" xmlns="http://www.w3.org/2000/svg">
<path d="M10.4789 2.69463C10.2778 2.92126 10.0825 3.14123 10.0766 3.3612C10.0588 3.5745 10.26 3.79447 10.4494 4.00111C10.7334 4.3344 11.0115 4.63436 10.9996 4.96098C10.9878 5.2876 10.686 5.62755 10.3843 5.96084L7.94057 8.72046L7.10036 7.77392L9.61507 4.94765L9.04704 4.30773L8.20683 5.2476L5.98797 2.74795L8.26008 0.194973C8.49084 -0.064991 8.87545 -0.064991 9.09437 0.194973L10.4789 1.75476C10.7097 2.00139 10.7097 2.43466 10.4789 2.69463ZM0 9.50035L5.65662 3.12123L7.87548 5.62089L2.21886 12H0V9.50035Z" fill="white"/>
</svg>
