<svg width="200" height="72" viewBox="0 0 200 72" fill="none" xmlns="http://www.w3.org/2000/svg">
<path d="M70.1195 21.5381C69.9352 21.5389 69.7541 21.4864 69.5987 21.3875C69.443 21.2885 69.3195 21.1473 69.2423 20.98C69.2239 20.8554 69.2239 20.7286 69.2423 20.6039V8.26381C69.2228 8.14316 69.2228 8.02033 69.2423 7.89967C69.2931 7.78444 69.368 7.68112 69.4614 7.59659C69.5455 7.51061 69.6447 7.44053 69.7541 7.39032C69.9997 7.31049 70.264 7.31049 70.5096 7.39032C70.6212 7.44306 70.7237 7.51278 70.8142 7.59659C70.8997 7.68293 70.966 7.78625 71.009 7.89967C71.0591 8.01455 71.0841 8.13882 71.0822 8.26381V19.6575H77.4556V8.26381C77.4541 8.13882 77.4788 8.01455 77.5288 7.89967C77.5719 7.78625 77.6385 7.68293 77.724 7.59659C77.7993 7.51133 77.8902 7.44126 77.992 7.39032C78.113 7.37081 78.2365 7.37081 78.3574 7.39032C78.4831 7.38851 78.6077 7.41308 78.7232 7.46293C78.8369 7.50592 78.9409 7.57203 79.0278 7.65728C79.1032 7.73061 79.1651 7.81695 79.2104 7.91195C79.2604 8.02684 79.2854 8.15074 79.2835 8.2761V19.6698H79.7102C79.8395 19.669 79.968 19.6936 80.088 19.7424C80.202 19.7912 80.3052 19.8613 80.3926 19.9487C80.4751 20.0328 80.5414 20.1318 80.5874 20.2398C80.6363 20.3594 80.6613 20.4872 80.6606 20.6163C80.6885 21.6743 80.4719 22.7244 80.0271 23.6861C79.9554 23.8635 79.8327 24.0156 79.6736 24.1228C79.5186 24.2366 79.3299 24.2962 79.1376 24.2926C79.0119 24.2944 78.8873 24.2695 78.7718 24.22C78.6588 24.1698 78.5556 24.1 78.4672 24.0137C78.3846 23.9296 78.3183 23.8306 78.2724 23.7222C78.214 23.6055 78.1847 23.4766 78.1869 23.3461C78.1926 23.193 78.2347 23.0434 78.3089 22.9095C78.5302 22.4875 78.6628 22.0251 78.6986 21.5504L70.1195 21.5381Z" fill="white"/>
<path d="M89.6661 18.7476C89.7872 18.7443 89.9076 18.7652 90.0204 18.8089C90.134 18.8531 90.2368 18.9184 90.3237 19.0022C90.4984 19.1811 90.5945 19.4209 90.592 19.6698C90.592 19.918 90.4959 20.1571 90.3237 20.337C89.3619 21.1505 88.1276 21.5721 86.8665 21.5183C85.6063 21.4641 84.4121 20.9385 83.5242 20.0458C83.0527 19.5889 82.6789 19.0413 82.4254 18.4365C82.1718 17.8318 82.044 17.1822 82.0497 16.527C82.044 15.8717 82.1718 15.2222 82.4254 14.6174C82.6789 14.0127 83.0527 13.4654 83.5242 13.0081C83.9818 12.5374 84.5316 12.1653 85.1392 11.9146C85.7475 11.6643 86.4002 11.5407 87.0579 11.5523C87.7156 11.5451 88.3674 11.6704 88.9741 11.9207C89.5817 12.1707 90.1315 12.5407 90.592 13.0081C91.06 13.465 91.4327 14.0091 91.6892 14.6098C91.9349 15.2189 92.0594 15.8702 92.0544 16.527C92.0561 16.6498 92.0327 16.7712 91.9859 16.8846C91.9399 16.9981 91.8706 17.101 91.7828 17.1873C91.6951 17.2733 91.5906 17.3409 91.4761 17.386C91.3616 17.4308 91.2388 17.4525 91.116 17.4492H84.0845C84.1781 17.7711 84.3269 18.075 84.5233 18.3473C84.7205 18.6099 84.9545 18.8429 85.2186 19.0387C85.4868 19.2309 85.7818 19.3823 86.0952 19.4877C86.4169 19.5961 86.7545 19.6492 87.0947 19.6456C87.459 19.6532 87.8225 19.5957 88.1668 19.4754C88.5003 19.3501 88.8086 19.1695 89.0811 18.9415C89.2491 18.814 89.4546 18.7457 89.6661 18.7476ZM90.0555 15.6412C89.9594 15.32 89.8115 15.017 89.6176 14.7435C89.4312 14.4837 89.2098 14.2507 88.9591 14.0517C88.6933 13.8617 88.4025 13.7107 88.0941 13.6027C87.4482 13.3924 86.7529 13.3924 86.1077 13.6027C85.7969 13.7133 85.501 13.8639 85.2303 14.0517C84.9637 14.2443 84.7289 14.478 84.5358 14.7435C84.3411 15.017 84.1932 15.32 84.0971 15.6412H90.0555Z" fill="white"/>
<path d="M95.3202 17.4857V20.6163C95.3202 20.7412 95.296 20.8648 95.2475 20.98C95.1999 21.084 95.1339 21.1787 95.052 21.2593C94.9617 21.3431 94.8589 21.4125 94.7478 21.4655C94.635 21.51 94.5146 21.5306 94.3943 21.5262C94.2689 21.5316 94.1453 21.5111 94.0291 21.4655C93.9138 21.4182 93.8102 21.3482 93.7241 21.2593C93.6414 21.1751 93.5753 21.0761 93.5285 20.9681C93.4801 20.8529 93.455 20.729 93.4558 20.604V12.5106C93.455 12.3896 93.4801 12.2696 93.5285 12.1588C93.5753 12.0504 93.6414 11.9517 93.7241 11.8676C93.8068 11.7748 93.9113 11.7039 94.0291 11.6613C94.1436 11.6115 94.2681 11.5869 94.3943 11.5883C94.5155 11.588 94.6358 11.6129 94.7478 11.6613C94.8614 11.7097 94.9651 11.7798 95.052 11.8676C95.1347 11.9517 95.2007 12.0504 95.2475 12.1588C95.296 12.2696 95.3202 12.3896 95.3202 12.5106V15.6412H99.9265V12.5106C99.9081 12.394 99.9081 12.2754 99.9265 12.1588C99.9775 12.05 100.048 11.9514 100.134 11.8676C100.21 11.7726 100.311 11.7011 100.426 11.6613C100.542 11.6133 100.666 11.5883 100.791 11.5883C100.918 11.5883 101.041 11.6133 101.157 11.6613C101.269 11.7072 101.369 11.7776 101.45 11.8676C101.533 11.9517 101.599 12.0504 101.645 12.1588C101.694 12.2696 101.718 12.3896 101.718 12.5106V20.6163C101.718 20.7412 101.694 20.8648 101.645 20.98C101.599 21.0884 101.533 21.187 101.45 21.2711C101.366 21.3571 101.267 21.4272 101.157 21.4774C100.92 21.558 100.664 21.558 100.426 21.4774C100.325 21.4254 100.237 21.3507 100.171 21.2593C100.084 21.1754 100.013 21.0768 99.9633 20.9681C99.9449 20.8474 99.9449 20.7246 99.9633 20.604V17.4857H95.3202Z" fill="white"/>
<path d="M117.231 20.6162C117.235 20.8536 117.147 21.0833 116.987 21.2592C116.903 21.3463 116.8 21.4149 116.686 21.4608C116.573 21.5067 116.451 21.5291 116.329 21.5262C116.203 21.5348 116.076 21.5157 115.958 21.4695C115.84 21.4232 115.733 21.3514 115.647 21.2592C115.56 21.174 115.49 21.0721 115.444 20.9594C115.398 20.8467 115.376 20.7257 115.379 20.6039V15.5562C115.379 15.2763 115.321 14.9996 115.208 14.743C115.103 14.4938 114.95 14.2669 114.757 14.0759C114.561 13.8746 114.326 13.7146 114.066 13.6062C113.807 13.4979 113.528 13.4429 113.246 13.4448C112.965 13.4448 112.687 13.5026 112.43 13.6149C112.18 13.7212 111.953 13.8736 111.76 14.0639C111.563 14.2547 111.406 14.4812 111.297 14.7312C111.188 14.9927 111.134 15.2734 111.138 15.5562V20.6162C111.142 20.734 111.122 20.8514 111.08 20.9619C111.039 21.0721 110.975 21.1732 110.894 21.2592C110.811 21.346 110.711 21.4146 110.6 21.4605C110.489 21.5064 110.368 21.5287 110.249 21.5262C110.125 21.5295 110.003 21.5078 109.889 21.463C109.774 21.4178 109.67 21.3503 109.582 21.2639C109.494 21.1779 109.425 21.075 109.378 20.9616C109.332 20.8481 109.309 20.7264 109.31 20.6039V15.5562C109.31 15.2727 109.252 14.9916 109.139 14.7312C109.025 14.4837 108.868 14.2576 108.677 14.0639C108.484 13.8736 108.256 13.7212 108.006 13.6149C107.749 13.5026 107.471 13.4444 107.189 13.4444C106.909 13.4444 106.63 13.5026 106.374 13.6149C106.119 13.7193 105.887 13.8718 105.691 14.0639C105.294 14.4602 105.071 14.9967 105.069 15.5562V20.6162C105.071 20.7993 105.017 20.9789 104.916 21.1317C104.814 21.2845 104.669 21.4037 104.499 21.4742C104.329 21.5443 104.142 21.5627 103.961 21.5265C103.78 21.4905 103.614 21.4015 103.485 21.2712C103.396 21.187 103.325 21.0851 103.277 20.9724C103.229 20.8597 103.204 20.7386 103.205 20.6162V12.5106C103.203 12.3896 103.227 12.27 103.275 12.1591C103.324 12.0482 103.395 11.9489 103.485 11.8676C103.563 11.7766 103.658 11.7017 103.764 11.6476C103.871 11.5934 103.987 11.5609 104.107 11.5522C104.303 11.55 104.494 11.6096 104.655 11.722C104.809 11.839 104.924 11.9998 104.984 12.1829C105.628 11.7643 106.384 11.5447 107.154 11.5522C107.733 11.5504 108.305 11.6703 108.835 11.9041C109.37 12.15 109.841 12.5157 110.212 12.9715C110.578 12.5233 111.041 12.1627 111.567 11.917C112.092 11.6714 112.666 11.5464 113.246 11.5522C113.778 11.5515 114.305 11.6588 114.794 11.8676C115.244 12.0821 115.656 12.369 116.013 12.7168C116.365 13.069 116.654 13.4794 116.866 13.9303C117.104 14.4396 117.228 14.9945 117.231 15.5562V20.6162Z" fill="white"/>
<path d="M123.824 21.5381C122.683 21.5576 121.572 21.1704 120.692 20.4461V24.8995C120.697 25.0212 120.676 25.143 120.63 25.2561C120.584 25.3691 120.514 25.471 120.424 25.5545C120.337 25.6426 120.232 25.7119 120.117 25.7578C120.001 25.8037 119.878 25.8254 119.754 25.8214C119.632 25.8232 119.511 25.8004 119.397 25.7546C119.284 25.7091 119.181 25.6412 119.095 25.5552C119.009 25.4692 118.941 25.3669 118.895 25.2542C118.849 25.1416 118.826 25.0209 118.828 24.8995V16.5634C118.82 15.9088 118.947 15.2601 119.198 14.6553C119.449 14.0506 119.821 13.5026 120.29 13.0445C120.754 12.5822 121.305 12.2155 121.912 11.9655C122.517 11.7151 123.168 11.5865 123.824 11.5865C124.481 11.5865 125.131 11.7151 125.737 11.9655C126.343 12.2155 126.894 12.5822 127.358 13.0445C127.826 13.5012 128.198 14.0455 128.455 14.6463C128.702 15.2554 128.825 15.9067 128.82 16.5634C128.834 17.2187 128.711 17.8697 128.459 18.4751C128.208 19.0809 127.832 19.6282 127.358 20.0823C126.904 20.5573 126.355 20.9323 125.746 21.1831C125.137 21.4337 124.482 21.5548 123.824 21.5381ZM120.644 16.5634C120.643 16.9799 120.726 17.3925 120.887 17.7769C121.052 18.1442 121.278 18.4809 121.557 18.7717C121.843 19.0524 122.177 19.2786 122.544 19.4389C122.929 19.6048 123.344 19.6875 123.763 19.6817C124.182 19.6864 124.597 19.604 124.982 19.4389C125.352 19.2786 125.687 19.0477 125.969 18.7598C126.254 18.4787 126.482 18.1446 126.639 17.7769C126.806 17.3943 126.889 16.9807 126.882 16.5634C126.891 16.1462 126.808 15.7322 126.639 15.35C126.479 14.9801 126.252 14.6427 125.969 14.3551C125.686 14.0708 125.351 13.844 124.982 13.6875C124.598 13.5192 124.183 13.4322 123.763 13.4328C123.343 13.4311 122.928 13.5182 122.544 13.6875C122.175 13.844 121.84 14.0708 121.557 14.3551C121.273 14.6413 121.045 14.979 120.887 15.35C120.724 15.734 120.641 16.1466 120.644 16.5634Z" fill="white"/>
<path d="M70.1195 43.3794C69.9352 43.3797 69.7541 43.3274 69.5987 43.2283C69.443 43.1294 69.3195 42.9881 69.2423 42.8213C69.2239 42.6963 69.2239 42.5698 69.2423 42.4448V30.1047C69.2228 29.9844 69.2228 29.8612 69.2423 29.7409C69.2895 29.6264 69.3601 29.5231 69.4495 29.4375C69.5336 29.3515 69.6324 29.2814 69.7418 29.2312C69.9873 29.1513 70.2517 29.1513 70.4974 29.2312C70.6088 29.2843 70.7117 29.3537 70.8019 29.4375C70.8874 29.5238 70.9541 29.6271 70.9971 29.7409C71.0471 29.8554 71.0717 29.9797 71.0703 30.1047V41.4983H77.4436V30.1047C77.4419 29.9797 77.4669 29.8554 77.5168 29.7409C77.5599 29.6271 77.6262 29.5238 77.7117 29.4375C77.7979 29.3486 77.9015 29.2782 78.0162 29.2312C78.134 29.1914 78.2575 29.1708 78.3817 29.1705C78.5074 29.1687 78.632 29.1936 78.7475 29.2431C78.8616 29.2861 78.9652 29.3522 79.0521 29.4375C79.1253 29.531 79.1792 29.6383 79.2104 29.7529C79.2604 29.8677 79.2854 29.9916 79.2835 30.117V41.5106H79.7102C79.8395 41.51 79.968 41.5348 80.088 41.5832C80.202 41.632 80.3052 41.7021 80.3926 41.7899C80.4751 41.8737 80.5414 41.9727 80.5874 42.081C80.6363 42.2002 80.6613 42.3282 80.6606 42.4571C80.6885 43.5152 80.4719 44.5657 80.0271 45.527C79.9554 45.7044 79.8327 45.8564 79.6736 45.9638C79.5186 46.0775 79.3299 46.1371 79.1376 46.1335C79.0119 46.1353 78.8873 46.1104 78.7718 46.0609C78.6588 46.0107 78.5556 45.941 78.4672 45.8547C78.3846 45.7704 78.3183 45.6715 78.2724 45.5635C78.214 45.4464 78.1847 45.3174 78.1869 45.1871C78.1926 45.0343 78.2347 44.8847 78.3089 44.7503C78.5302 44.3283 78.6628 43.866 78.6986 43.3913L70.1195 43.3794Z" fill="white"/>
<path d="M90.4214 43.3794C90.2994 43.383 90.1774 43.361 90.0646 43.3151C89.951 43.2692 89.8482 43.2002 89.7638 43.1124C89.5941 42.9404 89.498 42.71 89.4955 42.4694C89.1094 42.7812 88.6665 43.016 88.191 43.1608C87.7105 43.3096 87.2091 43.3833 86.7052 43.3794C86.0851 43.3816 85.4717 43.2577 84.9009 43.0153C83.8129 42.5377 82.9437 41.6718 82.4642 40.5884C82.2193 40.0213 82.0947 39.41 82.0983 38.7926V34.3515C82.094 34.2315 82.1158 34.112 82.1621 34.001C82.2085 33.8902 82.278 33.7905 82.3664 33.7084C82.5236 33.5257 82.7471 33.4122 82.9879 33.3931C83.2309 33.4021 83.4612 33.5022 83.6332 33.673C83.8045 33.8443 83.9056 34.0737 83.914 34.3153V38.7078C83.9148 39.4447 84.2082 40.1513 84.7305 40.6733C84.9853 40.9269 85.2879 41.1288 85.6205 41.2679C85.9631 41.4145 86.3316 41.489 86.7052 41.4865C87.0779 41.4879 87.4464 41.4134 87.7891 41.2679C88.4601 40.9876 88.9941 40.4558 89.2757 39.7875C89.4245 39.4468 89.4989 39.0791 89.4955 38.7078V34.3515C89.493 34.2309 89.5181 34.1109 89.5657 34C89.6142 33.8891 89.686 33.7897 89.7755 33.7084C89.8607 33.6203 89.9635 33.5502 90.0763 33.5026C90.1891 33.4549 90.3111 33.43 90.434 33.43C90.5568 33.43 90.678 33.4549 90.7908 33.5026C90.9045 33.5502 91.0064 33.6203 91.0917 33.7084C91.1802 33.7905 91.2496 33.8902 91.2964 34.001C91.3424 34.112 91.3641 34.2315 91.3599 34.3515V42.4571C91.3616 42.5796 91.3382 42.7013 91.2914 42.8148C91.2446 42.9282 91.1761 43.0311 91.0883 43.1171C91.0006 43.2035 90.8961 43.271 90.7816 43.3162C90.6671 43.361 90.5451 43.3826 90.4214 43.3794Z" fill="white"/>
<path d="M99.6098 30.1047C99.6098 29.9797 99.6349 29.8562 99.6834 29.7409C99.7293 29.6326 99.7954 29.5335 99.8781 29.4494C99.9692 29.3699 100.072 29.3046 100.183 29.2554C100.295 29.1958 100.421 29.1666 100.548 29.1705C100.672 29.168 100.793 29.1972 100.902 29.2554C101.015 29.2984 101.12 29.3645 101.207 29.4494C101.289 29.5335 101.356 29.6326 101.402 29.7409C101.45 29.8562 101.475 29.9797 101.474 30.1047V34.3031C101.814 34.0155 102.202 33.7897 102.62 33.6359C103.043 33.4845 103.487 33.4025 103.936 33.3931C104.527 33.3946 105.109 33.5286 105.641 33.7847C106.172 34.0408 106.64 34.413 107.007 34.8735C107.811 35.8691 108.25 37.1085 108.25 38.3863C108.25 39.664 107.811 40.9031 107.007 41.899C106.639 42.3578 106.172 42.728 105.64 42.982C105.109 43.2363 104.526 43.3678 103.936 43.3671C103.048 43.3714 102.186 43.0665 101.498 42.5055V46.7404C101.501 46.8654 101.476 46.9897 101.426 47.1042C101.355 47.2718 101.236 47.4148 101.085 47.516C100.933 47.6175 100.756 47.6724 100.573 47.6746C100.449 47.6785 100.325 47.6568 100.21 47.611C100.095 47.5648 99.9901 47.4958 99.9023 47.4076C99.8129 47.3216 99.7427 47.218 99.6959 47.1027C99.65 46.9878 99.6291 46.8643 99.6349 46.7404V42.5178C99.3006 42.8112 98.9112 43.034 98.4892 43.1731C98.0697 43.3169 97.6284 43.3866 97.1855 43.3794C96.6064 43.3844 96.0356 43.2558 95.5158 43.003C94.9777 42.728 94.5022 42.3484 94.1144 41.8867C93.7074 41.4218 93.3899 40.8875 93.1759 40.3095C92.7205 39.0506 92.7205 37.6731 93.1759 36.4146C93.3899 35.8326 93.7074 35.2939 94.1144 34.8247C94.4963 34.3833 94.9643 34.0242 95.4916 33.7691C96.0106 33.5171 96.5822 33.3884 97.1605 33.3931C97.6017 33.3899 98.0396 33.4679 98.4524 33.6235C98.8736 33.7677 99.2655 33.9856 99.6098 34.2666V30.1047ZM97.173 35.2861C96.8345 35.2824 96.5019 35.3706 96.2103 35.5408C95.9053 35.7054 95.6395 35.933 95.4306 36.2083C95.2008 36.5082 95.0236 36.8445 94.9066 37.2032C94.7771 37.5948 94.7111 38.0044 94.7111 38.4166C94.7136 38.8284 94.7796 39.2377 94.9066 39.63C95.0261 39.9837 95.2033 40.3157 95.4306 40.6126C95.6395 40.8878 95.9053 41.1155 96.2103 41.2802C96.5036 41.4438 96.8362 41.5276 97.173 41.523C97.5064 41.5291 97.8349 41.4453 98.1232 41.2802C98.434 41.1133 98.704 40.8814 98.9154 40.6007C99.1435 40.3056 99.3165 39.9729 99.4277 39.6177C99.5605 39.2272 99.6265 38.8168 99.6224 38.4043C99.6282 37.9918 99.5622 37.581 99.4277 37.1909C99.314 36.8332 99.141 36.4966 98.9154 36.196C98.7031 35.9197 98.4324 35.6917 98.1232 35.5288C97.8307 35.3619 97.4981 35.2781 97.1605 35.2861H97.173ZM103.948 35.2861C103.606 35.2839 103.27 35.3716 102.973 35.5408C102.67 35.717 102.404 35.9522 102.194 36.2325C101.963 36.5302 101.79 36.8676 101.681 37.2274C101.544 37.6171 101.479 38.0279 101.487 38.4408C101.481 38.8533 101.547 39.2641 101.681 39.6542C101.793 40.0094 101.966 40.3421 102.194 40.6372C102.404 40.9171 102.67 41.1523 102.973 41.3286C103.271 41.4879 103.604 41.5713 103.942 41.5713C104.28 41.5713 104.613 41.4879 104.911 41.3286C105.219 41.1527 105.488 40.9175 105.703 40.6372C105.928 40.3363 106.101 39.9999 106.215 39.6419C106.35 39.2518 106.416 38.8415 106.41 38.4285C106.418 38.016 106.352 37.6049 106.215 37.2151C106.107 36.8553 105.933 36.5183 105.703 36.2202C105.488 35.9395 105.219 35.7043 104.911 35.5288C104.613 35.3634 104.277 35.2795 103.936 35.2861H103.948Z" fill="white"/>
<path d="M114.904 43.3794C113.763 43.3986 112.651 43.0113 111.772 42.2873V46.7405C111.775 46.8633 111.751 46.985 111.703 47.0981C111.655 47.2111 111.583 47.3127 111.492 47.3957C111.362 47.5258 111.197 47.6147 111.016 47.6508C110.836 47.6869 110.648 47.6688 110.478 47.5984C110.308 47.5279 110.163 47.4087 110.062 47.2559C109.96 47.1031 109.906 46.9236 109.907 46.7405V38.4044C109.907 37.4203 110.2 36.4579 110.749 35.6394C111.298 34.8208 112.078 34.1828 112.992 33.8061C113.905 33.4297 114.909 33.331 115.879 33.5232C116.849 33.7154 117.739 34.1894 118.438 34.8854C118.906 35.3424 119.278 35.8865 119.535 36.4872C119.781 37.0963 119.905 37.7476 119.9 38.4044C119.914 39.0597 119.791 39.7106 119.539 40.3164C119.288 40.9219 118.912 41.4691 118.438 41.9232C117.971 42.3947 117.417 42.77 116.805 43.0275C116.201 43.27 115.555 43.3895 114.904 43.3794ZM111.772 38.4044C111.766 38.8216 111.848 39.2352 112.016 39.6177C112.171 39.9874 112.394 40.3248 112.674 40.6127C112.962 40.8962 113.301 41.1227 113.673 41.2802C114.453 41.5996 115.329 41.5996 116.11 41.2802C116.484 41.1199 116.823 40.889 117.11 40.6007C117.391 40.3164 117.619 39.9833 117.78 39.6177C117.941 39.2334 118.023 38.8209 118.023 38.4044C118.026 37.9879 117.942 37.5749 117.78 37.1909C117.615 36.8236 117.389 36.4868 117.11 36.1961C116.823 35.9114 116.484 35.6849 116.11 35.5288C115.726 35.3623 115.311 35.2767 114.891 35.2767C114.472 35.2767 114.058 35.3623 113.673 35.5288C113.3 35.682 112.961 35.9081 112.676 36.1936C112.392 36.4789 112.167 36.8181 112.016 37.1909C111.847 37.5731 111.764 37.9871 111.772 38.4044Z" fill="white"/>
<path d="M131.319 38.4044C131.332 39.0596 131.209 39.7106 130.958 40.3164C130.705 40.9219 130.331 41.4691 129.856 41.9232C128.919 42.8563 127.648 43.3808 126.322 43.3808C124.997 43.3808 123.726 42.8563 122.788 41.9232C121.851 40.9901 121.324 39.7243 121.324 38.4044C121.324 37.0847 121.851 35.8189 122.788 34.8854C123.252 34.4234 123.803 34.0567 124.409 33.8064C125.016 33.5561 125.665 33.4275 126.322 33.4275C126.978 33.4275 127.628 33.5561 128.235 33.8064C128.841 34.0567 129.392 34.4234 129.856 34.8854C130.328 35.3442 130.7 35.8933 130.953 36.4995C131.2 37.1042 131.325 37.7516 131.319 38.4044ZM126.322 35.2861C125.903 35.2843 125.487 35.3713 125.104 35.5408C124.735 35.6972 124.399 35.9241 124.117 36.2084C123.831 36.4944 123.604 36.8322 123.446 37.2032C123.284 37.5872 123.201 37.9997 123.203 38.4166C123.202 38.8331 123.285 39.2457 123.446 39.63C123.611 39.9974 123.837 40.3341 124.117 40.6249C124.402 40.9052 124.736 41.1317 125.104 41.2922C125.487 41.4579 125.904 41.5406 126.322 41.5349C126.741 41.5395 127.156 41.4573 127.541 41.2922C127.911 41.1317 128.246 40.9009 128.528 40.6126C128.813 40.3315 129.042 39.9977 129.198 39.63C129.365 39.2474 129.448 38.8335 129.442 38.4166C129.45 37.9994 129.367 37.5854 129.198 37.2032C129.038 36.8333 128.811 36.4959 128.528 36.2084C128.245 35.9241 127.91 35.6972 127.541 35.5408C127.157 35.3724 126.742 35.2853 126.322 35.2861Z" fill="white"/>
<path d="M137.046 33.3931C137.44 33.3938 137.83 33.4765 138.192 33.6359C138.544 33.7796 138.863 33.9946 139.13 34.2666C139.4 34.5364 139.619 34.8529 139.775 35.2011C139.967 35.6563 140.042 36.1523 139.993 36.6439C139.944 37.1352 139.773 37.607 139.495 38.016C139.682 38.1817 139.857 38.3602 140.019 38.5499C140.158 38.7204 140.28 38.9032 140.384 39.0961C140.482 39.29 140.559 39.4935 140.616 39.7026C140.668 39.9295 140.692 40.1617 140.689 40.3944C140.694 40.9681 140.529 41.5309 140.215 42.0121C139.9 42.4933 139.451 42.8714 138.923 43.1001C138.561 43.2566 138.171 43.3353 137.777 43.3306H133.706C133.582 43.3363 133.457 43.3154 133.341 43.2699C133.227 43.223 133.122 43.1525 133.036 43.0637C132.958 42.9766 132.892 42.8783 132.841 42.7725C132.793 42.6572 132.768 42.5337 132.768 42.4087V34.3515C132.768 34.2304 132.793 34.1109 132.841 33.9996C132.892 33.8938 132.958 33.7958 133.036 33.7084C133.119 33.6156 133.224 33.5449 133.341 33.5022C133.457 33.4527 133.581 33.4278 133.706 33.4296L137.046 33.3931ZM137.046 37.4459C137.189 37.4481 137.33 37.4192 137.46 37.3607C137.593 37.3105 137.714 37.2317 137.814 37.1302C137.914 37.0319 137.997 36.917 138.057 36.7906C138.117 36.6486 138.146 36.4955 138.142 36.3416C138.146 36.1992 138.117 36.0584 138.057 35.9291C137.998 35.7983 137.915 35.6791 137.814 35.5772C137.714 35.4771 137.599 35.3951 137.473 35.3345C137.337 35.281 137.192 35.2521 137.046 35.2496H134.609V37.4459H137.046ZM137.703 41.523C137.846 41.5251 137.988 41.4958 138.118 41.4376C138.252 41.3871 138.372 41.3087 138.471 41.2072C138.568 41.1043 138.647 40.9854 138.703 40.8554C138.768 40.7232 138.802 40.5779 138.801 40.4309C138.797 40.2803 138.764 40.1318 138.703 39.9938C138.651 39.8619 138.573 39.7424 138.471 39.6419C138.371 39.5419 138.251 39.4635 138.118 39.4114C137.986 39.3594 137.846 39.3306 137.703 39.3265H134.56V41.523H137.703Z" fill="white"/>
<path d="M152.035 38.4044C152.049 39.0597 151.926 39.7106 151.674 40.3164C151.422 40.9219 151.048 41.4691 150.573 41.9232C149.632 42.8546 148.359 43.3776 147.033 43.3776C145.706 43.3776 144.433 42.8546 143.493 41.9232C142.793 41.2268 142.316 40.3392 142.123 39.3724C141.931 38.4061 142.031 37.4044 142.411 36.4948C142.791 35.5848 143.434 34.8078 144.257 34.2623C145.081 33.7164 146.049 33.4267 147.039 33.4296C148.027 33.4289 148.993 33.7204 149.816 34.2666C150.638 34.8132 151.278 35.5903 151.658 36.4995C151.903 37.1049 152.031 37.7512 152.035 38.4044ZM147.039 35.2861C146.619 35.2857 146.204 35.3724 145.82 35.5408C145.451 35.6972 145.115 35.9241 144.833 36.2083C144.548 36.4919 144.325 36.8304 144.175 37.2032C144.002 37.5843 143.915 37.9983 143.919 38.4166C143.917 38.8346 144.004 39.2482 144.175 39.63C144.33 39.9993 144.554 40.3366 144.833 40.6249C145.118 40.9052 145.453 41.1317 145.82 41.2922C146.205 41.4565 146.62 41.5389 147.039 41.5349C147.457 41.5411 147.873 41.4583 148.257 41.2922C148.629 41.1288 148.968 40.8983 149.257 40.6126C149.538 40.3312 149.762 39.9974 149.914 39.63C150.086 39.2482 150.173 38.8346 150.171 38.4166C150.174 37.9983 150.087 37.5843 149.914 37.2032C149.759 36.8336 149.536 36.4962 149.257 36.2083C148.968 35.9262 148.629 35.7 148.257 35.5408C147.874 35.3706 147.458 35.2835 147.039 35.2861Z" fill="white"/>
<path d="M155.276 42.4572C155.277 42.5822 155.252 42.7061 155.203 42.8214C155.152 42.9272 155.087 43.0251 155.008 43.1125C154.922 43.2014 154.818 43.2715 154.704 43.3188C154.588 43.3643 154.463 43.3849 154.339 43.3795C154.213 43.3827 154.089 43.3621 153.972 43.3188C153.863 43.2682 153.764 43.1985 153.68 43.1125C153.597 43.0283 153.531 42.9294 153.485 42.8214C153.436 42.7061 153.412 42.5822 153.412 42.4572V36.3901C153.413 35.9934 153.495 35.6011 153.656 35.2374C153.957 34.5329 154.52 33.9719 155.228 33.6721C155.589 33.5167 155.98 33.4384 156.373 33.4416H159.091C159.212 33.4412 159.333 33.4662 159.445 33.5145C159.562 33.5572 159.666 33.628 159.749 33.7208C159.831 33.805 159.897 33.9036 159.943 34.012C159.992 34.1229 160.017 34.2428 160.017 34.3639C160.019 34.4888 159.994 34.6131 159.943 34.728C159.901 34.8414 159.834 34.9448 159.749 35.0311C159.665 35.1203 159.561 35.1871 159.445 35.2255C159.333 35.2739 159.212 35.2984 159.091 35.2981H156.373C156.221 35.2984 156.072 35.3316 155.935 35.3953C155.803 35.4549 155.684 35.5368 155.581 35.638C155.488 35.7445 155.411 35.863 155.35 35.9898C155.303 36.1181 155.278 36.2536 155.276 36.3901V42.4572Z" fill="white"/>
<path d="M171.314 38.4043C171.327 39.0596 171.204 39.7106 170.953 40.3164C170.7 40.9218 170.326 41.4691 169.851 41.9231C169.391 42.3906 168.841 42.7605 168.233 43.0109C167.626 43.2608 166.975 43.3863 166.317 43.3794C165.326 43.3855 164.356 43.0976 163.53 42.5517C162.704 42.0063 162.06 41.2278 161.681 40.316C161.301 39.4042 161.204 38.4007 161.4 37.4333C161.596 36.4662 162.079 35.579 162.783 34.8854C163.241 34.4147 163.79 34.0426 164.399 33.7919C165.006 33.5416 165.66 33.418 166.317 33.4296C166.975 33.4224 167.626 33.5477 168.233 33.798C168.841 34.048 169.391 34.418 169.851 34.8854C170.323 35.3417 170.692 35.8915 170.936 36.4995C171.182 37.1049 171.31 37.7512 171.314 38.4043ZM166.317 35.286C165.898 35.2857 165.483 35.3724 165.099 35.5407C164.729 35.6972 164.393 35.9236 164.112 36.2083C163.827 36.4918 163.603 36.8303 163.453 37.2031C163.281 37.5842 163.193 37.9982 163.198 38.4166C163.195 38.8345 163.283 39.2482 163.453 39.63C163.609 39.9992 163.832 40.3366 164.112 40.6249C164.397 40.9052 164.732 41.1316 165.099 41.2921C165.483 41.4565 165.899 41.5388 166.317 41.5348C166.737 41.541 167.152 41.4582 167.536 41.2921C167.908 41.1288 168.247 40.8983 168.535 40.6126C168.817 40.3312 169.041 39.9974 169.193 39.63C169.364 39.2482 169.452 38.8345 169.449 38.4166C169.453 37.9982 169.366 37.5842 169.193 37.2031C169.037 36.8336 168.814 36.4962 168.535 36.2083C168.246 35.9261 167.908 35.7 167.536 35.5407C167.152 35.3706 166.737 35.2835 166.317 35.286Z" fill="white"/>
<path d="M69.1443 64.2862V51.946C69.1429 51.8207 69.1676 51.6968 69.2176 51.5819C69.2649 51.4677 69.3356 51.3644 69.4247 51.2785C69.5087 51.1925 69.608 51.1227 69.7174 51.0722C69.8426 51.0537 69.9697 51.0537 70.0951 51.0722H72.8492C73.2606 51.0715 73.6702 51.1246 74.0679 51.2301C74.4605 51.3442 74.8372 51.5075 75.1889 51.7152C75.5442 51.9197 75.872 52.1682 76.1639 52.4554C76.4482 52.7451 76.6977 53.0666 76.9071 53.4141C77.115 53.7678 77.2747 54.1471 77.3822 54.5427C77.5022 54.9361 77.5637 55.3446 77.5652 55.7557C77.5557 57.0038 77.0526 58.1974 76.1653 59.0785C75.278 59.9599 74.078 60.4573 72.8249 60.4638H71.0454V64.3223C71.0465 64.4466 71.022 64.5697 70.9737 64.6846C70.9256 64.7991 70.8546 64.9032 70.7652 64.9899C70.6782 65.0777 70.5735 65.147 70.458 65.1929C70.3428 65.2388 70.2194 65.2604 70.0951 65.2568C69.9738 65.2489 69.855 65.2167 69.7463 65.1626C69.6373 65.1083 69.5406 65.0332 69.4612 64.9411C69.3667 64.8591 69.2899 64.7587 69.2353 64.6459C69.181 64.5332 69.1498 64.4108 69.1443 64.2862ZM71.0454 52.8921V58.5467H72.8492C73.2233 58.55 73.5934 58.4712 73.9336 58.3162C74.2697 58.1771 74.576 57.9755 74.8354 57.7216C75.098 57.4641 75.3087 57.1595 75.4569 56.8235C75.6098 56.4732 75.6883 56.0953 75.6883 55.7135C75.6883 55.3316 75.6098 54.9538 75.4569 54.603C75.3087 54.2674 75.098 53.9629 74.8354 53.7053C74.576 53.4513 74.2697 53.2494 73.9336 53.1107C73.5909 52.9651 73.2219 52.891 72.8492 52.8921H71.0454Z" fill="white"/>
<path d="M86.9735 64.2981V64.1283C86.5356 64.4732 86.0459 64.7474 85.5227 64.941C84.8417 65.16 84.1213 65.2308 83.4107 65.1484C82.6997 65.066 82.0152 64.8327 81.4028 64.4638C80.7903 64.0954 80.2647 63.5997 79.8613 63.0113C79.4578 62.4228 79.1862 61.7549 79.0645 61.0526C78.9428 60.3504 78.9739 59.6304 79.1561 58.9411C79.3383 58.2522 79.6668 57.6099 80.1199 57.0583C80.5726 56.5067 81.1394 56.058 81.7812 55.7434C82.4234 55.4287 83.1257 55.2549 83.8414 55.234C85.1659 55.234 86.437 55.7582 87.3738 56.6913C88.3114 57.624 88.8371 58.8894 88.8371 60.2091V64.2616C88.8521 64.3927 88.8396 64.5249 88.7995 64.6506C88.7602 64.7759 88.6933 64.8916 88.6056 64.9898C88.5178 65.0881 88.4092 65.1668 88.2889 65.2207C88.1685 65.2745 88.0373 65.3023 87.9053 65.3023C87.7732 65.3023 87.642 65.2745 87.5217 65.2207C87.4005 65.1668 87.2927 65.0881 87.205 64.9898C87.1172 64.8916 87.0504 64.7759 87.0111 64.6506C86.971 64.5249 86.9576 64.3927 86.9735 64.2616V64.2981ZM83.8414 57.1269C83.4215 57.1255 83.0061 57.2122 82.6226 57.3816C82.2532 57.538 81.9178 57.7649 81.6353 58.0492C81.3469 58.3324 81.1188 58.6709 80.9652 59.0441C80.8022 59.4281 80.7197 59.841 80.7215 60.2575C80.7211 60.674 80.8041 61.0865 80.9652 61.4709C81.2807 62.2176 81.875 62.8137 82.6226 63.1334C83.0069 63.2992 83.4223 63.3819 83.8414 63.3758C84.26 63.3837 84.6762 63.301 85.0598 63.1334C85.435 62.9759 85.7751 62.7447 86.0593 62.4539C86.3409 62.1695 86.5682 61.8365 86.7295 61.4709C86.8908 61.0865 86.9735 60.674 86.9735 60.2575C86.9752 59.841 86.8916 59.4281 86.7295 59.0441C86.5648 58.6767 86.3384 58.34 86.0593 58.0492C85.7743 57.7616 85.4342 57.5348 85.0598 57.3816C84.677 57.2104 84.2609 57.1233 83.8414 57.1269Z" fill="white"/>
<path d="M92.0669 62.6114C92.1814 62.7671 92.321 62.9025 92.4806 63.0121C92.8433 63.2461 93.2678 63.3685 93.6999 63.3639C94.1344 63.3718 94.5598 63.2446 94.9183 62.9998C95.0612 62.9159 95.1815 62.8 95.2709 62.6605C95.3603 62.5214 95.4147 62.3632 95.4297 62.1989C95.4331 62.0313 95.4005 61.8651 95.3361 61.7104C95.2709 61.5562 95.174 61.4168 95.052 61.3011C94.7027 61.0335 94.2748 60.8883 93.8336 60.8886C93.7132 60.8926 93.5929 60.8709 93.4817 60.825C93.3698 60.7788 93.2695 60.7095 93.1876 60.6217C93.099 60.5368 93.0288 60.4349 92.9812 60.3222C92.9327 60.2098 92.9076 60.0884 92.9076 59.9664C92.9076 59.8439 92.9327 59.7229 92.9812 59.6102C93.0288 59.4979 93.099 59.396 93.1876 59.3111C93.2695 59.2215 93.3689 59.1503 93.4809 59.1023C93.592 59.0539 93.7124 59.03 93.8336 59.0318C94.2539 59.0402 94.6709 58.9527 95.052 58.7771C95.3938 58.5951 95.5517 58.4011 95.5517 58.1948C95.54 58.042 95.4874 57.8949 95.3996 57.7693C95.3119 57.6435 95.1915 57.5432 95.052 57.4789C94.6768 57.2824 94.2581 57.1822 93.8336 57.1877C93.4015 57.183 92.9778 57.3055 92.6151 57.5396C92.4655 57.6393 92.3377 57.7671 92.2374 57.9155C92.1956 57.9741 92.1463 58.0272 92.0912 58.0734C92.0059 58.1624 91.904 58.2328 91.7912 58.2808C91.6775 58.3289 91.5563 58.3531 91.4326 58.3527C91.3106 58.3542 91.1895 58.3314 91.0766 58.2855C90.9638 58.24 90.861 58.1721 90.7741 58.0861C90.6881 58.0001 90.6204 57.8979 90.5744 57.7852C90.5284 57.6725 90.505 57.5518 90.5067 57.4305C90.5042 57.2538 90.556 57.0803 90.653 56.933C90.8368 56.639 91.0725 56.3799 91.3474 56.1682C92.0251 55.5982 92.8742 55.2695 93.7609 55.234C94.6851 55.2091 95.591 55.4956 96.3314 56.0472C96.6682 56.273 96.9415 56.5789 97.1287 56.937C97.3158 57.295 97.4111 57.6941 97.4044 58.0976C97.4328 58.4575 97.3593 58.8183 97.1905 59.138C97.0225 59.4578 96.7668 59.724 96.4534 59.9057C96.7693 60.1867 97.0175 60.5339 97.1821 60.9219C97.3459 61.3098 97.422 61.7296 97.4044 62.1505C97.4028 62.5626 97.305 62.969 97.1186 63.3375C96.9323 63.706 96.6632 64.0264 96.3314 64.2738C95.6152 64.8782 94.6993 65.1979 93.7609 65.1719C92.8399 65.1939 91.9399 64.8981 91.2137 64.3345C90.968 64.1435 90.7507 63.9188 90.5677 63.6673C90.4499 63.5098 90.3897 63.3173 90.3972 63.1211C90.4064 62.8924 90.5025 62.6761 90.6655 62.5146C90.7507 62.4272 90.8527 62.3585 90.9663 62.3127C91.08 62.2668 91.2012 62.2448 91.3232 62.2476C91.4686 62.239 91.6132 62.2682 91.7435 62.3322C91.873 62.3958 91.985 62.4922 92.0669 62.6114Z" fill="white"/>
<path d="M103.132 55.234C103.527 55.2348 103.917 55.3175 104.278 55.4768C104.629 55.6238 104.947 55.8381 105.216 56.1079C105.486 56.3774 105.705 56.6942 105.862 57.042C106.012 57.4036 106.091 57.7913 106.093 58.1825C106.106 58.7808 105.927 59.3674 105.582 59.8572C105.765 60.0259 105.94 60.204 106.106 60.3911C106.244 60.5613 106.366 60.7441 106.471 60.937C106.569 61.1292 106.643 61.3333 106.691 61.5439C106.842 62.154 106.791 62.7971 106.544 63.3758C106.391 63.7262 106.177 64.0466 105.911 64.3222C105.637 64.591 105.314 64.8052 104.96 64.9533C104.595 65.1112 104.2 65.1896 103.802 65.1838H99.7318C99.6115 65.2073 99.487 65.2073 99.3666 65.1838C99.2538 65.1228 99.1552 65.0404 99.0742 64.941C98.9914 64.8569 98.9254 64.7583 98.8794 64.6499C98.8301 64.5346 98.8059 64.4111 98.8059 64.2862V56.1928C98.8059 56.0717 98.8301 55.9518 98.8794 55.8409C98.9254 55.7326 98.9914 55.6335 99.0742 55.5497C99.1552 55.4598 99.2547 55.3894 99.3666 55.3435C99.4828 55.2958 99.6065 55.2713 99.7318 55.2705L103.132 55.234ZM103.132 59.2869C103.284 59.3049 103.438 59.2883 103.583 59.2385C103.715 59.1846 103.835 59.1066 103.936 59.0076C104.038 58.913 104.117 58.797 104.168 58.668C104.232 58.5268 104.265 58.374 104.265 58.219C104.265 58.0759 104.232 57.9347 104.168 57.8064C104.117 57.6739 104.038 57.5539 103.936 57.4546C103.836 57.3563 103.721 57.2744 103.595 57.2118C103.46 57.1583 103.315 57.1295 103.169 57.1269H100.731V59.3234L103.132 59.2869ZM103.802 63.3274C104.093 63.326 104.372 63.2129 104.582 63.012C104.679 62.909 104.758 62.7898 104.814 62.6601C104.875 62.5269 104.904 62.3816 104.899 62.2353C104.901 62.0854 104.871 61.937 104.814 61.7986C104.756 61.6671 104.672 61.5475 104.57 61.4467C104.467 61.3499 104.347 61.2719 104.217 61.2163C104.085 61.1639 103.945 61.1353 103.802 61.131H100.67V63.3639L103.802 63.3274Z" fill="white"/>
<path d="M116.488 65.2203C116.365 65.2254 116.243 65.2045 116.13 65.1582C116.016 65.1123 115.914 65.0422 115.83 64.9534C115.743 64.8699 115.676 64.7699 115.63 64.6593C115.583 64.5488 115.56 64.4299 115.561 64.3103C115.174 64.6196 114.732 64.8543 114.258 65.0018C113.776 65.151 113.275 65.2246 112.771 65.2203C112.151 65.224 111.537 65.1001 110.968 64.8562C110.414 64.6188 109.91 64.2814 109.481 63.8613C109.052 63.4339 108.705 62.9322 108.457 62.381C108.208 61.8145 108.079 61.2033 108.079 60.5852V56.1928C108.078 56.0718 108.101 55.9519 108.15 55.841C108.198 55.73 108.269 55.6307 108.359 55.5498C108.445 55.4616 108.547 55.3915 108.66 55.3435C108.773 55.2958 108.895 55.2712 109.018 55.2712C109.141 55.2712 109.262 55.2958 109.376 55.3435C109.488 55.3915 109.59 55.4616 109.676 55.5498C109.766 55.6307 109.838 55.73 109.885 55.841C109.934 55.9519 109.958 56.0718 109.956 56.1928V60.5852C109.948 60.9558 110.018 61.3236 110.164 61.6649C110.304 61.9951 110.506 62.2957 110.76 62.5507C111.018 62.8018 111.319 63.0034 111.649 63.1454C111.997 63.292 112.37 63.3664 112.747 63.3639C113.115 63.3668 113.481 63.2924 113.819 63.1454C114.155 63.0066 114.462 62.8047 114.721 62.5507C114.975 62.2968 115.179 61.9959 115.318 61.6649C115.466 61.3243 115.541 60.9566 115.537 60.5852V56.1928C115.533 56.0725 115.555 55.953 115.601 55.842C115.647 55.7311 115.717 55.6314 115.805 55.5498C115.891 55.4613 115.995 55.3909 116.109 55.3428C116.223 55.2948 116.346 55.2701 116.47 55.2701C116.593 55.2701 116.716 55.2948 116.83 55.3428C116.944 55.3909 117.047 55.4613 117.133 55.5498C117.222 55.6314 117.292 55.7311 117.338 55.842C117.384 55.953 117.406 56.0725 117.401 56.1928V64.298C117.403 64.4209 117.381 64.5422 117.334 64.6557C117.287 64.7695 117.218 64.8721 117.13 64.9584C117.042 65.0444 116.938 65.112 116.823 65.1571C116.709 65.2023 116.587 65.2236 116.464 65.2203H116.488Z" fill="white"/>
<path d="M132.939 64.298C132.941 64.4197 132.918 64.5404 132.872 64.6527C132.826 64.7655 132.758 64.8677 132.672 64.9537C132.586 65.0397 132.482 65.1076 132.369 65.1534C132.256 65.1993 132.135 65.2221 132.013 65.2203C131.89 65.2254 131.768 65.2043 131.655 65.1581C131.541 65.1122 131.439 65.0422 131.355 64.9533C131.267 64.8684 131.199 64.7661 131.153 64.6535C131.107 64.5408 131.084 64.4197 131.087 64.298V59.2384C131.087 58.9584 131.029 58.6817 130.916 58.4252C130.811 58.176 130.658 57.9491 130.466 57.758C130.276 57.56 130.048 57.4029 129.795 57.2967C129.53 57.1836 129.243 57.1259 128.955 57.1269C128.673 57.1269 128.396 57.1847 128.137 57.2967C127.89 57.4062 127.663 57.5583 127.468 57.7457C127.272 57.9364 127.115 58.163 127.004 58.4133C126.896 58.6745 126.842 58.9556 126.846 59.2384V64.298C126.846 64.4205 126.822 64.5419 126.774 64.6546C126.726 64.7672 126.655 64.8688 126.566 64.9533C126.484 65.0414 126.383 65.1108 126.272 65.1567C126.16 65.2029 126.041 65.2246 125.92 65.2203C125.797 65.2235 125.675 65.2023 125.559 65.157C125.446 65.1119 125.341 65.0444 125.253 64.9584C125.166 64.8721 125.096 64.7691 125.05 64.6556C125.003 64.5422 124.98 64.4208 124.982 64.298V59.2384C124.982 58.9545 124.923 58.6738 124.811 58.4133C124.701 58.163 124.544 57.9364 124.348 57.7457C124.157 57.5583 123.934 57.4066 123.69 57.2967C123.428 57.1847 123.146 57.1269 122.861 57.1269C122.58 57.1269 122.302 57.1847 122.044 57.2967C121.79 57.4015 121.559 57.5539 121.363 57.7457C121.174 57.94 121.022 58.1663 120.911 58.4133C120.804 58.6745 120.749 58.9556 120.753 59.2384V64.298C120.753 64.4205 120.729 64.5419 120.681 64.6546C120.633 64.7672 120.562 64.8688 120.473 64.9533C120.297 65.1252 120.061 65.2217 119.815 65.2217C119.568 65.2217 119.332 65.1252 119.156 64.9533C119.068 64.8688 118.997 64.7672 118.948 64.6546C118.901 64.5419 118.876 64.4205 118.876 64.298V56.1928C118.875 56.0717 118.898 55.9518 118.947 55.8409C118.995 55.73 119.066 55.6307 119.156 55.5497C119.242 55.4609 119.344 55.3904 119.456 55.3424C119.57 55.2943 119.692 55.2698 119.815 55.2705C120.01 55.2687 120.203 55.3279 120.363 55.4403C120.517 55.5577 120.631 55.7184 120.692 55.9016C121.337 55.4826 122.091 55.2629 122.861 55.2705C123.441 55.2687 124.013 55.3886 124.543 55.6223C125.078 55.8687 125.549 56.2339 125.92 56.6902C126.283 56.235 126.744 55.8676 127.269 55.6155C127.795 55.3633 128.371 55.2329 128.955 55.234C129.486 55.2333 130.014 55.3406 130.502 55.5497C130.952 55.7643 131.364 56.0511 131.721 56.399C132.073 56.7509 132.363 57.1616 132.574 57.6124C132.784 58.099 132.891 58.6235 132.891 59.1532L132.939 64.298Z" fill="white"/>
<path d="M142.907 65.2203C142.785 65.2254 142.663 65.2045 142.55 65.1582C142.436 65.1123 142.333 65.0422 142.25 64.9534C142.164 64.8699 142.096 64.7699 142.05 64.6593C142.003 64.5488 141.981 64.4299 141.981 64.3103C141.594 64.6196 141.152 64.8543 140.678 65.0018C140.196 65.151 139.695 65.2246 139.191 65.2203C138.571 65.225 137.957 65.1011 137.388 64.8562C136.834 64.6188 136.33 64.2814 135.901 63.8613C135.481 63.4322 135.142 62.9304 134.901 62.381C134.652 61.8145 134.524 61.2033 134.524 60.5852V56.1928C134.521 56.0718 134.545 55.9519 134.594 55.841C134.642 55.73 134.713 55.6307 134.804 55.5498C134.889 55.4616 134.991 55.3915 135.105 55.3435C135.217 55.2958 135.339 55.2712 135.461 55.2712C135.585 55.2712 135.706 55.2958 135.82 55.3435C135.933 55.3915 136.035 55.4616 136.12 55.5498C136.208 55.6314 136.278 55.7311 136.325 55.842C136.371 55.953 136.392 56.0725 136.388 56.1928V60.5852C136.384 60.9566 136.459 61.3243 136.607 61.6649C136.748 61.9951 136.951 62.2957 137.205 62.5507C137.462 62.8018 137.764 63.0034 138.094 63.1454C138.441 63.292 138.814 63.3664 139.191 63.3639C139.56 63.3668 139.925 63.2924 140.263 63.1454C140.599 63.0066 140.905 62.8047 141.165 62.5507C141.42 62.2968 141.623 61.9959 141.762 61.6649C141.91 61.3243 141.986 60.9566 141.981 60.5852V56.1928C141.977 56.0725 141.999 55.953 142.045 55.842C142.092 55.7311 142.161 55.6314 142.25 55.5498C142.336 55.4613 142.439 55.3909 142.553 55.3428C142.667 55.2948 142.789 55.2701 142.914 55.2701C143.038 55.2701 143.16 55.2948 143.274 55.3428C143.389 55.3909 143.491 55.4613 143.578 55.5498C143.666 55.6314 143.735 55.7311 143.782 55.842C143.828 55.953 143.85 56.0725 143.846 56.1928V64.298C143.847 64.4209 143.825 64.5422 143.778 64.6557C143.731 64.7695 143.662 64.8721 143.574 64.9584C143.486 65.0444 143.382 65.112 143.268 65.1571C143.153 65.2023 143.031 65.2236 142.907 65.2203Z" fill="white"/>
<path d="M151.901 55.2341C152.026 55.2348 152.151 55.2593 152.267 55.3071C152.379 55.3529 152.478 55.4233 152.559 55.5133C152.642 55.5975 152.708 55.6961 152.754 55.8044C152.807 55.9146 152.836 56.0343 152.839 56.1563V64.2616C152.828 64.5065 152.729 64.7391 152.559 64.9169C152.475 65.0029 152.376 65.0729 152.267 65.1232C152.146 65.1466 152.022 65.1466 151.901 65.1232C151.781 65.1474 151.656 65.1474 151.536 65.1232C151.317 65.0191 151.14 64.8435 151.036 64.6257C151.012 64.5058 151.012 64.3819 151.036 64.2616V61.1675H149.257C149.049 61.1672 148.845 61.2246 148.668 61.334C148.491 61.4435 148.349 61.6003 148.257 61.7863L146.71 64.6622C146.639 64.8291 146.521 64.9715 146.369 65.0708C146.217 65.1701 146.039 65.2225 145.856 65.2203C145.736 65.2435 145.612 65.2435 145.491 65.2203C145.382 65.1697 145.283 65.1001 145.199 65.0141C145.116 64.9299 145.05 64.8312 145.004 64.7229C144.956 64.6076 144.93 64.4837 144.93 64.3587C144.93 64.1879 144.976 64.0199 145.064 63.8736L146.612 60.9612C146.661 60.8576 146.723 60.7596 146.795 60.6701C146.597 60.4873 146.41 60.2926 146.234 60.0878C146.094 59.9122 145.968 59.7254 145.856 59.5296C145.757 59.3378 145.683 59.1337 145.637 58.9227C145.586 58.6958 145.562 58.4636 145.565 58.2313C145.552 57.8148 145.632 57.4008 145.796 57.0179C145.952 56.6696 146.171 56.3532 146.441 56.0833C146.71 55.8149 147.03 55.6007 147.38 55.4526C147.742 55.2969 148.132 55.2186 148.526 55.2222L151.901 55.2341ZM150.975 59.2869V57.127H148.538C148.389 57.1266 148.243 57.1566 148.106 57.2151C147.97 57.2737 147.847 57.3592 147.746 57.4669C147.645 57.567 147.566 57.6869 147.514 57.8188C147.457 57.9445 147.427 58.0811 147.429 58.219C147.432 58.3646 147.46 58.5084 147.514 58.6438C147.57 58.7768 147.652 58.8968 147.758 58.9957C147.86 59.0969 147.98 59.1789 148.111 59.2385C148.246 59.2977 148.391 59.327 148.538 59.3233L150.975 59.2869Z" fill="white"/>
<path d="M34.8648 29.3038H22.6299V41.2922L34.8648 37.6883V29.3038Z" fill="white"/>
<path d="M47.9776 42.1779L51.1826 39.0113V32.8834L47.9899 33.8299V32.1797C47.9957 32.1396 47.9957 32.0984 47.9899 32.0583C48.4206 31.9283 48.8161 31.7018 49.1453 31.3962C49.4745 31.0902 49.7292 30.7134 49.8896 30.2948C50.0501 29.8757 50.112 29.4259 50.0707 28.9794C50.0297 28.5329 49.8863 28.1019 49.6516 27.7191C49.4173 27.3365 49.0979 27.0121 48.7183 26.7715C48.3383 26.5306 47.9081 26.3796 47.4608 26.3301C47.0131 26.2802 46.5604 26.3333 46.1366 26.485C45.7129 26.6367 45.3297 26.8828 45.0164 27.2046C44.4702 27.7584 44.1642 28.5037 44.1642 29.2796C44.1642 30.056 44.4702 30.8009 45.0164 31.3547C45.3685 31.7358 45.8136 32.0201 46.308 32.1797V34.2912L47.9899 33.7934L47.9776 42.1779ZM47.0758 31.1242C46.8114 31.1292 46.5488 31.0754 46.308 30.9663C46.0895 30.876 45.8907 30.7441 45.723 30.578C45.5578 30.41 45.4253 30.2124 45.3333 29.9956C45.2366 29.7692 45.187 29.5256 45.187 29.2796C45.187 29.0336 45.2366 28.7901 45.3333 28.5637C45.4253 28.3472 45.5578 28.1497 45.723 27.9813C45.8871 27.8076 46.0867 27.671 46.308 27.581C46.5354 27.485 46.7799 27.4354 47.0272 27.4354C47.2743 27.4354 47.5187 27.485 47.7462 27.581C47.9696 27.6739 48.1724 27.8101 48.3431 27.9813C48.5068 28.1446 48.6426 28.3332 48.7455 28.5395C48.8429 28.7656 48.8925 29.0094 48.8914 29.2555C48.894 29.4978 48.844 29.7377 48.7455 29.9591C48.6545 30.177 48.5223 30.3745 48.3554 30.5415C48.1848 30.713 47.982 30.8489 47.7581 30.9421C47.5455 31.0479 47.3134 31.1097 47.0758 31.1242Z" fill="white"/>
<path d="M6.47131 46.0486L16.0863 55.6223L16.1471 55.6953C16.2405 55.7849 16.297 55.9059 16.3057 56.0349C16.3115 56.0833 16.3115 56.1321 16.3057 56.1805V61.1432C17.3423 61.6616 18.4082 62.1193 19.4983 62.5145V57.4668L10.2127 48.2569C10.1652 48.2099 10.1243 48.1568 10.0906 48.0994C10.0403 48.0654 10.0052 48.0131 9.99323 47.9538V47.8689C9.95663 47.7544 9.95663 47.6312 9.99323 47.517V45.0902L6.48362 46.1216L6.47131 46.0486Z" fill="white"/>
<path d="M19.4982 14.3428C19.7789 14.0755 20.0009 13.7533 20.1497 13.396C20.2986 13.0388 20.3714 12.6548 20.3634 12.2679C20.3674 11.885 20.2928 11.5049 20.144 11.1516C19.9983 10.7943 19.7781 10.4717 19.4982 10.2052C19.2283 9.92739 18.9046 9.70771 18.546 9.55961C18.1874 9.4115 17.8024 9.33783 17.4146 9.34361C17.0259 9.33565 16.6402 9.40824 16.2816 9.55634C15.9227 9.70486 15.5989 9.92555 15.3305 10.2052C15.0531 10.4725 14.8332 10.7932 14.6844 11.148C14.5359 11.5024 14.4613 11.8835 14.4653 12.2679C14.4627 12.6562 14.5402 13.0406 14.6934 13.3975C14.8463 13.7548 15.0716 14.0763 15.3548 14.3428C15.6887 14.6947 16.1089 14.9537 16.5735 15.0953V43.1001L11.6381 44.5564V19.8031C11.6442 19.7428 11.6442 19.6817 11.6381 19.621C12.0589 19.4711 12.4418 19.2309 12.7594 18.9173C13.0383 18.6489 13.2588 18.3259 13.4077 17.969C13.5566 17.6121 13.6304 17.2289 13.6247 16.8423C13.6152 16.4569 13.5409 16.0754 13.4051 15.7142C13.253 15.3601 13.0339 15.0386 12.7594 14.7677C12.4877 14.492 12.1632 14.2738 11.8054 14.1257C11.4476 13.9776 11.0633 13.9032 10.6754 13.9061C9.89561 13.9093 9.14844 14.22 8.59789 14.7706C8.04774 15.3208 7.73879 16.0656 7.73879 16.8423C7.73915 17.5005 7.96153 18.1396 8.37041 18.6565C8.77931 19.1734 9.35083 19.5391 9.99305 19.694V33.8541L5.93511 29.8258V27.8841C6.39979 27.7491 6.82029 27.4936 7.15386 27.1444C7.43456 26.877 7.6562 26.5544 7.80506 26.1971C7.95428 25.8399 8.02709 25.4559 8.01876 25.0693C8.02166 24.6825 7.94704 24.2988 7.79963 23.9408C7.64751 23.5868 7.4284 23.2652 7.15386 22.9943C6.88222 22.7187 6.5577 22.5005 6.19987 22.3528C5.84167 22.2046 5.45739 22.1299 5.06985 22.1327C4.68195 22.127 4.29659 22.2003 3.93839 22.3488C3.57983 22.4969 3.25567 22.7165 2.98584 22.9943C2.71131 23.266 2.49291 23.5893 2.34405 23.9455C2.1952 24.3017 2.11877 24.6835 2.11877 25.0693C2.11877 25.4551 2.1952 25.837 2.34405 26.1932C2.49291 26.549 2.71131 26.8723 2.98584 27.1444C3.32267 27.4897 3.74208 27.7444 4.20459 27.8841V30.117C4.1959 30.2337 4.21292 30.3507 4.2553 30.4599C4.29731 30.569 4.36323 30.6672 4.44834 30.7478L9.99305 36.2325V45.0173L11.6746 44.5199V47.3351L20.8875 56.5204C21.0136 56.6443 21.0951 56.8065 21.119 56.9814C21.1309 57.0457 21.1309 57.1114 21.119 57.1754V62.9633C21.9313 63.1818 22.7723 63.3639 23.6416 63.5095V55.0159L17.0611 48.4029C16.9455 48.3451 16.8477 48.2566 16.7793 48.1475C16.7104 48.0384 16.6731 47.9127 16.671 47.7841V43.1001L18.2798 42.5662V15.0831C18.743 14.9447 19.1628 14.6897 19.4982 14.3428ZM5.24044 26.9016H4.94816C4.75221 26.8817 4.55953 26.8365 4.37518 26.7679C4.15352 26.6779 3.95433 26.5414 3.79026 26.3677C3.62075 26.2026 3.48783 26.0042 3.40018 25.7853C3.30384 25.5588 3.25422 25.3153 3.25422 25.0693C3.25422 24.8234 3.30384 24.5798 3.40018 24.3533C3.48783 24.1341 3.62075 23.9357 3.79026 23.771C3.95795 23.6048 4.15678 23.473 4.37518 23.3827C4.60263 23.2866 4.8471 23.2371 5.09412 23.2371C5.34113 23.2371 5.58596 23.2866 5.81305 23.3827C6.03471 23.473 6.23428 23.6096 6.39798 23.783C6.57255 23.9462 6.70982 24.1449 6.80037 24.3657C6.89888 24.5871 6.94887 24.827 6.94669 25.0693C6.94741 25.3153 6.89779 25.5592 6.80037 25.7853C6.70366 26.0024 6.56712 26.2001 6.39798 26.3677C6.23428 26.5414 6.03471 26.6779 5.81305 26.7679C5.6287 26.8365 5.43639 26.8817 5.24044 26.9016ZM10.6877 18.6746C10.4367 18.6756 10.1878 18.6262 9.95646 18.529C9.73768 18.4394 9.53887 18.3075 9.37148 18.141C9.20418 17.9741 9.07163 17.7761 8.98146 17.5583C8.88511 17.3318 8.83547 17.0883 8.83547 16.8423C8.83547 16.5964 8.88511 16.3528 8.98146 16.1267C9.07848 15.9121 9.20994 15.7156 9.37148 15.544C9.54681 15.397 9.7442 15.2782 9.95646 15.1922C10.1878 15.0953 10.4367 15.0458 10.6877 15.0466C10.935 15.0444 11.1799 15.0942 11.4066 15.1922C11.6257 15.2868 11.8242 15.423 11.9916 15.5928C12.1607 15.7604 12.2972 15.958 12.3935 16.1751C12.4874 16.402 12.533 16.6458 12.5279 16.891C12.5338 17.1324 12.4881 17.3723 12.3935 17.5948C12.3001 17.8173 12.1636 18.0196 11.9916 18.1894C11.8239 18.3556 11.6251 18.4874 11.4066 18.5778C11.1763 18.659 10.9314 18.6922 10.6877 18.6746ZM18.1577 13.9787C17.9303 14.0748 17.6858 14.1247 17.4388 14.1247C17.1918 14.1247 16.9473 14.0748 16.7199 13.9787C16.4982 13.8888 16.2987 13.7523 16.135 13.5785C15.9604 13.4152 15.8234 13.2165 15.7329 12.9961C15.638 12.7693 15.5924 12.5254 15.5985 12.2801C15.5902 12.0305 15.6358 11.7824 15.7329 11.5522C15.8234 11.3316 15.9604 11.1328 16.135 10.9696C16.2987 10.7962 16.4982 10.6596 16.7199 10.5693C16.9473 10.4732 17.1918 10.4237 17.4388 10.4237C17.6858 10.4237 17.9303 10.4732 18.1577 10.5693C18.3794 10.6596 18.5789 10.7962 18.7426 10.9696C18.9118 11.1372 19.0483 11.3347 19.1447 11.5522C19.241 11.7765 19.2907 12.0179 19.2907 12.2621C19.2907 12.5059 19.241 12.7473 19.1447 12.9719C19.0483 13.1891 18.9118 13.3867 18.7426 13.5543C18.5811 13.7367 18.3815 13.8815 18.1577 13.9787Z" fill="white"/>
<path d="M3.72941 39.1811C4.22342 39.0441 4.67325 38.7805 5.03326 38.4166C5.31396 38.1493 5.53598 37.8268 5.68484 37.4695C5.83369 37.1126 5.90649 36.7282 5.89853 36.3417C5.8902 35.9599 5.81595 35.5824 5.67904 35.2255C5.5262 34.8681 5.30707 34.543 5.03326 34.2667C4.76308 33.9886 4.43929 33.7678 4.08108 33.6175C3.72288 33.4672 3.33788 33.391 2.94926 33.3932C2.56209 33.3849 2.17744 33.4564 1.81888 33.6024C1.46032 33.7483 1.13581 33.9665 0.865615 34.2425C0.586013 34.5156 0.365075 34.8425 0.216218 35.2034C0.0673602 35.5643 -0.00579844 35.9516 0.000358686 36.3417C-0.00543625 36.7282 0.0684519 37.1115 0.216947 37.4684C0.365805 37.8253 0.586737 38.1479 0.865615 38.4166C1.201 38.7613 1.62113 39.0124 2.08436 39.1446V43.7432C2.08436 43.8646 2.08436 43.9741 2.08436 44.0225L2.18179 44.1196C2.25459 44.1992 2.34115 44.2649 2.4375 44.3137L4.67977 46.5461L2.55955 47.165C5.11041 52.7271 9.38018 57.3319 14.7456 60.306V56.5447L4.66782 46.5949L6.47114 46.0487L3.72941 43.3188V39.1811ZM2.97389 38.2469H2.86415C2.64285 38.2397 2.42409 38.1945 2.21837 38.1132C1.99998 38.0171 1.80186 37.8813 1.63345 37.713C1.4462 37.5197 1.30495 37.2878 1.21911 37.0335C1.12277 36.8088 1.07315 36.5675 1.07315 36.3236C1.07315 36.0794 1.12277 35.8381 1.21911 35.6138C1.30965 35.3959 1.44221 35.1983 1.60882 35.0311C1.7823 34.8516 1.98947 34.7074 2.21837 34.6067C2.44945 34.5084 2.69826 34.4589 2.94926 34.4611C3.19264 34.4607 3.43314 34.5101 3.65624 34.6067C3.87427 34.7027 4.07276 34.8386 4.24117 35.0069C4.41067 35.172 4.54359 35.3703 4.63124 35.5896C4.72722 35.8139 4.77684 36.0552 4.77684 36.2991C4.77684 36.5433 4.72722 36.7846 4.63124 37.0089C4.54359 37.2282 4.41067 37.4265 4.24117 37.5916C4.07276 37.7599 3.87427 37.8957 3.65624 37.9918C3.45016 38.1251 3.21728 38.2122 2.97389 38.2469Z" fill="white"/>
<path d="M57.0075 31.2456L53.4976 32.1797L52.8517 32.3618V27.326C53.3107 27.1906 53.7294 26.9446 54.0705 26.6104C54.3479 26.341 54.5667 26.018 54.7134 25.6611C54.8601 25.3042 54.9318 24.9209 54.9235 24.5354C54.9267 24.1503 54.8529 23.7689 54.7065 23.4127C54.5602 23.0561 54.3439 22.7328 54.0705 22.4604C53.7989 22.1848 53.4743 21.9666 53.1165 21.8189C52.7586 21.6708 52.3744 21.596 51.9865 21.5988C51.5874 21.5862 51.1901 21.6574 50.8206 21.8081C50.4512 21.9587 50.1176 22.1851 49.842 22.4727C49.5671 22.7444 49.3487 23.0676 49.1999 23.4239C49.051 23.7797 48.9746 24.1619 48.9746 24.5473C48.9746 24.9331 49.051 25.315 49.1999 25.6712C49.3487 26.0273 49.5671 26.3507 49.842 26.6224C50.2151 26.9757 50.6791 27.2191 51.1825 27.326V32.8715L52.8641 32.386V39.3386C52.8663 39.4509 52.846 39.5625 52.8039 39.6666C52.7623 39.771 52.6996 39.8656 52.6203 39.9455L48.1115 44.435L47.9894 44.5322V48.4632C47.9905 48.6027 47.9562 48.7399 47.8902 48.8632C47.8243 48.986 47.7287 49.0904 47.6117 49.1673L47.5265 49.2641L40.946 55.8163V61.1798C45.8363 58.857 49.9659 55.2023 52.8558 50.639C55.746 46.0754 57.2784 40.79 57.2755 35.3952C57.2726 34.0076 57.1832 32.6219 57.0075 31.2456ZM51.9256 26.3919C51.6743 26.3951 51.4252 26.3457 51.1944 26.2463C50.9764 26.1502 50.7779 26.0144 50.6094 25.8457C50.4483 25.6745 50.3165 25.4776 50.2198 25.2633C50.1231 25.0368 50.0734 24.7934 50.0734 24.5473C50.0734 24.3014 50.1231 24.0582 50.2198 23.8317C50.3096 23.6135 50.4421 23.4156 50.6094 23.2491C50.7768 23.0825 50.9756 22.9506 51.1944 22.861C51.4252 22.7613 51.6743 22.7118 51.9256 22.7151C52.1727 22.7144 52.4175 22.7639 52.6446 22.861C52.863 22.9571 53.0611 23.093 53.2296 23.2613C53.4001 23.4253 53.5334 23.624 53.6196 23.8437C53.7181 24.0651 53.7681 24.3053 53.7659 24.5473C53.767 24.7937 53.717 25.0372 53.6196 25.2633C53.5272 25.4801 53.395 25.6776 53.2296 25.8457C53.0611 26.0144 52.863 26.1502 52.6446 26.2463C52.4143 26.3268 52.1694 26.3597 51.9256 26.3435V26.3919Z" fill="white"/>
<path d="M49.4275 16.0779C49.1682 15.4468 48.6962 14.9248 48.0928 14.6022C47.4894 14.2796 46.7922 14.1759 46.1203 14.3096C45.4485 14.4429 44.8448 14.8053 44.412 15.3337C43.9792 15.8622 43.7444 16.5244 43.7484 17.2065C43.7466 17.6569 43.8509 18.1016 44.0534 18.5047L41.6159 20.9316C41.526 21.0215 41.4576 21.1303 41.4152 21.2498C41.3732 21.3694 41.3584 21.4969 41.3721 21.6234V35.7351L39.91 36.1718V14.9739C39.91 14.9739 39.91 14.9133 39.91 14.8767C40.4112 14.7478 40.8665 14.4833 41.2262 14.1124C41.5069 13.8451 41.7285 13.5224 41.8778 13.1655C42.0266 12.8083 42.0994 12.4242 42.091 12.0374C42.0831 11.6555 42.0089 11.278 41.8719 10.9211C41.7187 10.5642 41.4996 10.2387 41.2262 9.96233C40.9487 9.68639 40.6173 9.46963 40.2526 9.32546C39.8883 9.18172 39.4978 9.1134 39.1056 9.12537C38.7184 9.11708 38.3334 9.18825 37.9752 9.33451C37.6166 9.48043 37.2921 9.69869 37.022 9.97464C36.7452 10.2449 36.5257 10.5681 36.3772 10.9244C36.2287 11.2809 36.1534 11.6635 36.1567 12.0497C36.1508 12.4358 36.2244 12.8195 36.3732 13.1764C36.5221 13.5333 36.7427 13.8559 37.022 14.1243C37.3592 14.4663 37.7785 14.7171 38.2403 14.8526C38.2403 14.8526 38.2403 14.9374 38.2403 14.9858V26.3553L35.8883 24.0137L35.73 23.8923C35.9419 23.4791 36.0506 23.0214 36.047 22.5576C36.0516 22.1703 35.977 21.7863 35.8274 21.429C35.6819 21.0718 35.4617 20.7492 35.1817 20.4825C35.0767 20.3756 34.9626 20.2781 34.8405 20.1914L33.8778 19.7182C33.6225 19.6553 33.3606 19.6228 33.0977 19.621C32.5149 19.6217 31.9455 19.7943 31.4609 20.117C30.9764 20.4396 30.599 20.898 30.3759 21.4341C30.1531 21.9705 30.0948 22.5604 30.2081 23.1294C30.3219 23.6987 30.6023 24.2218 31.014 24.6325C31.4758 25.0939 32.0788 25.3886 32.7279 25.4699C33.3769 25.5512 34.0346 25.4146 34.5967 25.0812L34.7064 25.2026L38.2403 28.7337V36.6569L34.8405 37.6641V41.4622H22.6544V41.2679L21.1311 41.7169V27.9936L29.2103 19.9486C29.3502 19.8045 29.4324 19.6149 29.4422 19.4147C29.4487 19.3583 29.4487 19.3013 29.4422 19.2449V12.4499C29.9046 12.3101 30.3241 12.0554 30.6605 11.7097C30.9394 11.4413 31.1603 11.1183 31.3092 10.7614C31.4581 10.4049 31.5316 10.0213 31.5258 9.63506C31.5247 9.24819 31.4505 8.86558 31.3063 8.50651C31.1607 8.14891 30.9405 7.82668 30.6605 7.56007C30.3835 7.27867 30.051 7.05687 29.6841 6.90876C29.3172 6.76028 28.9239 6.68876 28.528 6.69851C28.1401 6.69273 27.7548 6.76606 27.3965 6.91418C27.038 7.06265 26.7138 7.28228 26.4443 7.56007C26.1673 7.82956 25.9488 8.15289 25.8022 8.50977C25.6555 8.86634 25.5838 9.24928 25.591 9.63506C25.5852 10.0213 25.6591 10.4049 25.808 10.7614C25.9569 11.1183 26.1774 11.4413 26.4563 11.7097C26.7931 12.0554 27.2121 12.3101 27.675 12.4499V18.9902L24.4335 22.2177V19.7912C24.4393 19.7547 24.4393 19.7178 24.4335 19.6817C25.0329 19.4938 25.5567 19.121 25.929 18.6171C26.3013 18.1131 26.503 17.5044 26.5052 16.8788C26.5099 16.4919 26.4353 16.1079 26.2857 15.7502C26.1336 15.3666 25.896 15.0223 25.591 14.7435C25.3197 14.4679 24.9953 14.2496 24.6371 14.1015C24.2792 13.9534 23.8949 13.8786 23.5074 13.8819C22.725 13.8819 21.975 14.1911 21.422 14.7416C20.8689 15.2925 20.5581 16.0392 20.5581 16.8181C20.5524 17.2046 20.6262 17.5879 20.7751 17.9448C20.9239 18.3017 21.1445 18.6243 21.4234 18.8931C21.7805 19.2583 22.2317 19.5184 22.7272 19.6456C22.7215 19.6734 22.7215 19.7023 22.7272 19.7305V23.8923L19.754 26.8528C19.6309 26.925 19.5291 27.0279 19.4585 27.1515C19.3879 27.2746 19.3513 27.4145 19.3517 27.5568V42.1172L18.2184 42.4448V47.2013L25.0308 53.9845C25.1126 54.0694 25.1767 54.1705 25.2187 54.281C25.2603 54.3916 25.2796 54.5093 25.2741 54.6274V63.7279C26.0053 63.8128 26.7489 63.8735 27.4921 63.8977V53.1836L19.5835 45.3084C19.489 45.2174 19.4183 45.1043 19.3778 44.9793C19.3375 44.8544 19.3285 44.7218 19.3517 44.5928V42.1659L21.0337 41.6685V44.3377L28.9057 52.1764C28.9872 52.2551 29.0521 52.3495 29.0963 52.4535C29.1401 52.5579 29.1625 52.6699 29.1618 52.7829V63.8371C29.9173 63.8371 30.6605 63.8371 31.4041 63.7157V47.9538C31.3957 47.8335 31.4131 47.7129 31.4552 47.6002C31.4972 47.4871 31.5627 47.3842 31.6479 47.2985L38.1552 40.8189V36.6569L39.8368 36.1718V41.3285C39.8256 41.4117 39.7872 41.4883 39.7271 41.5471C39.6898 41.6269 39.6405 41.7007 39.5807 41.7653L33.0491 48.2692V63.5578L34.4747 63.2908V54.4938C34.4631 54.4255 34.4631 54.3558 34.4747 54.2875C34.496 54.112 34.5779 53.9491 34.7064 53.8266L41.2624 47.2862V35.7351L42.9443 35.2373V47.6626C42.9451 47.8018 42.911 47.9394 42.8451 48.0622C42.7789 48.185 42.6832 48.2894 42.5666 48.3664L36.1201 54.773V62.8783C37.1284 62.5998 38.1208 62.2674 39.0933 61.8835V55.3918C39.0922 55.239 39.1338 55.0888 39.2135 54.958C39.2932 54.8276 39.4077 54.7214 39.5442 54.6516L46.1371 48.0871V34.3031L42.9443 35.2373V21.89L45.1135 19.7305C45.6803 20.0758 46.3481 20.2192 47.0081 20.1379C47.6676 20.0563 48.2801 19.7542 48.7447 19.2814C49.024 19.0126 49.2445 18.6901 49.3934 18.3332C49.5423 17.9763 49.6158 17.5929 49.61 17.2065C49.6256 16.8221 49.5633 16.4381 49.4275 16.0779ZM34.8039 23.2612C34.608 23.6991 34.2563 24.0491 33.817 24.2442C33.5895 24.3403 33.345 24.3898 33.0977 24.3898C32.8507 24.3898 32.6062 24.3403 32.3787 24.2442C32.1603 24.1539 31.9615 24.022 31.7938 23.8558C31.6246 23.6882 31.4885 23.4906 31.3918 23.2735C31.2132 22.8126 31.2132 22.3025 31.3918 21.8416C31.4885 21.6245 31.6246 21.4268 31.7938 21.2592C31.9579 21.0855 32.1575 20.9489 32.3787 20.8586C32.6062 20.7625 32.8507 20.713 33.0977 20.713C33.345 20.713 33.5895 20.7625 33.817 20.8586C34.0382 20.9489 34.2378 21.0855 34.4019 21.2592C34.5711 21.4268 34.7072 21.6245 34.8039 21.8416C34.9013 22.0677 34.9513 22.3115 34.9502 22.5576C34.9372 22.8035 34.8706 23.0434 34.755 23.2612H34.8039ZM27.2241 10.9334C27.0478 10.7643 26.9069 10.5624 26.8098 10.3387C26.7134 10.1145 26.6639 9.87275 26.6639 9.62895C26.6639 9.38474 26.7134 9.14346 26.8098 8.91908C26.9065 8.70158 27.0427 8.50441 27.2118 8.33676C27.3748 8.15577 27.574 8.01127 27.7967 7.91193C28.0282 7.81475 28.277 7.76527 28.528 7.76635C28.7754 7.76419 29.0202 7.81367 29.2469 7.91193C29.4686 8.00225 29.6681 8.1388 29.8318 8.31219C30.001 8.4798 30.1375 8.67738 30.2342 8.89489C30.3317 9.12102 30.3813 9.36448 30.3802 9.61053C30.3813 9.85291 30.3317 10.0924 30.2342 10.3145C30.1433 10.5349 30.0064 10.7337 29.8318 10.8969C29.6681 11.0706 29.4686 11.2072 29.2469 11.2972C29.0202 11.3954 28.7754 11.4449 28.528 11.4428C28.277 11.4439 28.0282 11.3944 27.7967 11.2972C27.5856 11.2112 27.3915 11.088 27.2241 10.9334ZM22.252 18.1164C22.0826 17.9517 21.95 17.7533 21.8624 17.5341C21.7657 17.3076 21.716 17.0641 21.716 16.8181C21.716 16.5721 21.7657 16.3286 21.8624 16.1021C21.95 15.8832 22.0826 15.6848 22.252 15.5197C22.4161 15.346 22.6157 15.2095 22.837 15.1195C23.0644 15.0234 23.3089 14.9739 23.5559 14.9739C23.8029 14.9739 24.0478 15.0234 24.2749 15.1195C24.4987 15.2123 24.7015 15.3485 24.8721 15.5197C25.0336 15.691 25.1655 15.8878 25.2622 16.1021C25.3596 16.3282 25.4093 16.5721 25.4085 16.8181C25.4107 17.0604 25.3607 17.3003 25.2622 17.5217C25.1716 17.7396 25.039 17.9373 24.8721 18.1044C24.7015 18.2757 24.4987 18.4119 24.2749 18.5047C24.0478 18.6008 23.8029 18.6503 23.5559 18.6503C23.3089 18.6503 23.0644 18.6008 22.837 18.5047C22.6186 18.4145 22.4198 18.2826 22.252 18.1164ZM39.1056 13.8819C38.8546 13.8826 38.6057 13.8331 38.3743 13.7363C38.152 13.6413 37.9491 13.5055 37.7774 13.3357C37.6163 13.1713 37.488 12.9777 37.3997 12.7656C37.3033 12.5409 37.2537 12.2996 37.2537 12.0558C37.2537 11.8116 37.3033 11.5703 37.3997 11.3459C37.4852 11.1249 37.6134 10.9229 37.7774 10.7513C37.9484 10.5772 38.1509 10.437 38.3743 10.3387C38.6057 10.2416 38.8546 10.1921 39.1056 10.1932C39.3529 10.1911 39.5978 10.2405 39.8245 10.3387C40.0429 10.4349 40.241 10.5707 40.4095 10.739C40.5789 10.9038 40.7119 11.1024 40.7995 11.3214C40.8958 11.5461 40.9451 11.7874 40.9451 12.0312C40.9451 12.2755 40.8958 12.5167 40.7995 12.741C40.7119 12.9604 40.5789 13.1586 40.4095 13.3237C40.241 13.4921 40.0429 13.6279 39.8245 13.724C39.5989 13.8262 39.3537 13.8801 39.1056 13.8819ZM48.4036 17.9101C48.2076 18.348 47.8563 18.698 47.4166 18.8931C47.1892 18.9892 46.9447 19.0387 46.6977 19.0387C46.4507 19.0387 46.2062 18.9892 45.9788 18.8931C45.76 18.8028 45.5615 18.6709 45.3938 18.5047C45.2243 18.34 45.0914 18.1417 45.0037 17.9224C44.907 17.6959 44.8574 17.4524 44.8574 17.2065C44.8574 16.9604 44.907 16.7169 45.0037 16.4905C45.0914 16.2715 45.2243 16.0729 45.3938 15.9081C45.5575 15.7343 45.7571 15.5978 45.9788 15.5078C46.2062 15.4117 46.4507 15.3619 46.6977 15.3619C46.9447 15.3619 47.1892 15.4117 47.4166 15.5078C47.6383 15.5978 47.8375 15.7343 48.0015 15.9081C48.1707 16.0757 48.3068 16.2733 48.4036 16.4905C48.501 16.7166 48.551 16.9604 48.5499 17.2065C48.5521 17.4488 48.5021 17.6887 48.4036 17.9101Z" fill="white"/>
</svg>
